<?xml version="1.0" encoding="UTF-8"?>
<svg width="33px" height="33px" viewBox="0 0 33 33" version="1.1" xmlns="http://www.w3.org/2000/svg" xmlns:xlink="http://www.w3.org/1999/xlink">
    <title>Group 2</title>
    <g id="Symbols" stroke="none" stroke-width="1" fill="none" fill-rule="evenodd">
        <g id="Footer" transform="translate(-1286.000000, -235.000000)">
            <g id="Group-21" transform="translate(1110.750000, 235.500000)">
                <g id="Group-2" transform="translate(176.000000, 0.001350)">
                    <circle id="Oval" fill="#FFFFFF" cx="15.9972996" cy="15.9972996" r="15.9972996"></circle>
                    <g id="atm-machine" transform="translate(5.497300, 8.997300)" fill="#3F3F3F" fill-rule="nonzero">
                        <path d="M4.80311891,4.80311891 C4.32106043,4.80311891 3.92982456,5.19522807 3.92982456,5.67641326 L3.92982456,6.76803119 L5.67641326,6.76803119 L5.67641326,5.67641326 C5.67641326,5.19522807 5.28517739,4.80311891 4.80311891,4.80311891 Z" id="Path"></path>
                        <path d="M18.5575049,0 L2.40155945,0 C1.07677193,0 0,1.07677193 0,2.40155945 L0,11.5711501 C0,12.8959376 1.07677193,13.9727096 2.40155945,13.9727096 L18.5575049,13.9727096 C19.8822924,13.9727096 20.9590643,12.8959376 20.9590643,11.5711501 L20.9590643,2.40155945 C20.9590643,1.07677193 19.8822924,0 18.5575049,0 Z M6.98635478,9.8245614 C6.98635478,10.1861053 6.69292788,10.4795322 6.33138402,10.4795322 C5.96984016,10.4795322 5.67641326,10.1861053 5.67641326,9.8245614 L5.67641326,8.07797271 L3.92982456,8.07797271 L3.92982456,9.8245614 C3.92982456,10.1861053 3.63639766,10.4795322 3.2748538,10.4795322 C2.91330994,10.4795322 2.61988304,10.1861053 2.61988304,9.8245614 L2.61988304,5.67641326 C2.61988304,4.47301365 3.598846,3.49317739 4.80311891,3.49317739 C6.00739181,3.49317739 6.98635478,4.47301365 6.98635478,5.67641326 L6.98635478,9.8245614 Z M11.5711501,4.80311891 L10.6978558,4.80311891 L10.6978558,9.8245614 C10.6978558,10.1861053 10.4044288,10.4795322 10.042885,10.4795322 C9.68134113,10.4795322 9.38791423,10.1861053 9.38791423,9.8245614 L9.38791423,4.80311891 L8.51461988,4.80311891 C8.15307602,4.80311891 7.85964912,4.50969201 7.85964912,4.14814815 C7.85964912,3.78660429 8.15307602,3.49317739 8.51461988,3.49317739 L11.5711501,3.49317739 C11.932694,3.49317739 12.2261209,3.78660429 12.2261209,4.14814815 C12.2261209,4.50969201 11.932694,4.80311891 11.5711501,4.80311891 Z M18.3391813,9.8245614 C18.3391813,10.1861053 18.0457544,10.4795322 17.6842105,10.4795322 C17.3226667,10.4795322 17.0292398,10.1861053 17.0292398,9.8245614 L17.0292398,6.61433138 L16.5061365,7.52954386 C16.2720936,7.93824561 15.6022768,7.93824561 15.3682339,7.52954386 L14.8460039,6.61433138 L14.8460039,9.8245614 C14.8460039,10.1861053 14.552577,10.4795322 14.1910331,10.4795322 C13.8294893,10.4795322 13.5360624,10.1861053 13.5360624,9.8245614 L13.5360624,4.14814815 C13.5360624,3.85122807 13.7360468,3.59098635 14.0233606,3.51500975 C14.3080546,3.43990643 14.6128343,3.56566082 14.7604211,3.82328265 L15.9384951,5.88425731 L17.1165692,3.82328265 C17.2641559,3.56566082 17.5671891,3.43990643 17.8536296,3.51500975 C18.1391969,3.59098635 18.3391813,3.85122807 18.3391813,4.14814815 L18.3391813,9.8245614 Z" id="Shape"></path>
                    </g>
                </g>
            </g>
        </g>
    </g>
</svg>