<?xml version="1.0" encoding="UTF-8"?>
<svg width="33px" height="33px" viewBox="0 0 33 33" version="1.1" xmlns="http://www.w3.org/2000/svg" xmlns:xlink="http://www.w3.org/1999/xlink">
    <title>Group 36</title>
    <defs>
        <polygon id="path-1" points="0 16.7196343 18.1150907 16.7196343 18.1150907 -2.83048292e-05 0 -2.83048292e-05"></polygon>
    </defs>
    <g id="Symbols" stroke="none" stroke-width="1" fill="none" fill-rule="evenodd">
        <g id="Footer" transform="translate(-1242.000000, -235.000000)">
            <g id="Group-21" transform="translate(1110.750000, 235.500000)">
                <g id="Group-36" transform="translate(132.000000, 0.000000)">
                    <circle id="Oval" fill="#FFFFFF" cx="15.9979747" cy="15.9979747" r="15.9979747"></circle>
                    <g id="Group-13" transform="translate(6.649703, 4.839859)">
                        <path d="M10.9775185,4.69622403 L11.5099323,4.50431729 L11.2226383,3.7072533 C12.2727475,4.20372001 13.1564242,5.00955849 13.7462969,6.02938149 L14.2362535,5.7457671 C13.5985457,4.643294 12.6466543,3.76924088 11.5158764,3.22182548 L12.2328377,2.96340239 L12.0409309,2.43098856 L10.6432385,2.93481452 C10.4963364,2.98802759 10.4199134,3.14993122 10.4731264,3.29711633 L10.9775185,4.69622403 Z" id="Fill-1" fill="#3F3F3F"></path>
                        <path d="M6.59511011,13.1329312 L6.06269627,13.324838 L6.35083943,14.1244494 C5.27950165,13.6291149 4.37969113,12.8133697 3.78330838,11.7791113 L3.29306874,12.0621596 C3.9370036,13.178219 4.90361352,14.0613296 6.05420482,14.6081789 L5.34007398,14.8657529 L5.53198072,15.3981667 L6.92939014,14.8943408 C7.0762922,14.8411277 7.15271524,14.6792241 7.09950216,14.5320389 L6.59511011,13.1329312 Z" id="Fill-3" fill="#3F3F3F"></path>
                        <path d="M13.7897731,12.1129667 C14.4959786,12.1129667 15.0705666,12.6878378 15.0705666,13.3946094 C15.0705666,14.0040124 14.6428807,14.5129332 14.0728214,14.6425693 L14.0728214,15.1254497 L13.5067248,15.1254497 L13.5067248,14.6425693 C12.9358164,14.5129332 12.5081304,14.0040124 12.5081304,13.3946094 L13.074227,13.3946094 C13.074227,13.7894618 13.3949207,14.1104385 13.7897731,14.1104385 C14.1840594,14.1104385 14.50447,13.7894618 14.50447,13.3946094 C14.50447,13.0000401 14.1840594,12.6790633 13.7897731,12.6790633 C13.0830015,12.6790633 12.5081304,12.1041922 12.5081304,11.3977037 C12.5081304,10.7883007 12.9358164,10.2790968 13.5067248,10.1497438 L13.5067248,9.66658034 L14.0728214,9.66658034 L14.0728214,10.1497438 C14.6428807,10.2793799 15.0705666,10.7883007 15.0705666,11.3977037 L14.50447,11.3977037 C14.50447,11.0028513 14.1840594,10.6818746 13.7897731,10.6818746 C13.3949207,10.6818746 13.074227,11.0028513 13.074227,11.3977037 C13.074227,11.79199 13.3949207,12.1129667 13.7897731,12.1129667 M13.7900562,8.07245236 C11.4039591,8.07245236 9.46224778,10.0113332 9.46224778,12.3945998 C9.46224778,14.7806969 11.4039591,16.7195777 13.7900562,16.7195777 C16.1764363,16.7195777 18.115034,14.7806969 18.115034,12.3945998 C18.115034,10.0113332 16.1764363,8.07245236 13.7900562,8.07245236" id="Fill-5" fill="#3F3F3F"></path>
                        <mask id="mask-2" fill="white">
                            <use xlink:href="#path-1"></use>
                        </mask>
                        <g id="Clip-8"></g>
                        <polygon id="Fill-7" fill="#3F3F3F" mask="url(#mask-2)" points="4.09769012 3.41466628 5.13392991 3.41466628 5.13392991 2.50551517 4.09769012 2.50551517"></polygon>
                        <polygon id="Fill-9" fill="#3F3F3F" mask="url(#mask-2)" points="4.09769012 1.93970164 5.13392991 1.93970164 5.13392991 -2.83048292e-05 4.09769012 -2.83048292e-05"></polygon>
                        <path d="M7.92812604,0.195359931 C7.84038107,0.0736491655 7.7016874,5.66096583e-05 7.55167181,5.66096583e-05 L5.69996989,5.66096583e-05 L5.69996989,1.9395035 L9.09626634,1.9395035 L7.92812604,0.195359931 Z" id="Fill-10" fill="#3F3F3F" mask="url(#mask-2)"></path>
                        <path d="M3.53162184,-5.66096583e-05 L1.67850467,-5.66096583e-05 C1.52848908,-5.66096583e-05 1.38696493,0.0735359461 1.29638948,0.200907677 L0.131079664,1.93967333 L3.53162184,1.93967333 L3.53162184,-5.66096583e-05 Z" id="Fill-11" fill="#3F3F3F" mask="url(#mask-2)"></path>
                        <path d="M1.46052918,8.81409549 L2.99465092,8.81409549 L2.99465092,8.24799891 L1.46052918,8.24799891 L1.46052918,8.81409549 Z M5.70059259,3.69658238 C5.70059259,3.85508943 5.57322086,3.97963067 5.4175443,3.97963067 L3.81549097,3.97963067 C3.65698393,3.97963067 3.53244268,3.85508943 3.53244268,3.69658238 L3.53244268,2.50494908 L0,2.50494908 L0,9.53020767 C0,9.78495113 0.206625253,9.99157639 0.458538232,9.99157639 L8.68392158,9.99157639 C8.98395277,9.99157639 9.2273743,9.74532437 9.2273743,9.44529318 L9.2273743,2.50494908 L5.70059259,2.50494908 L5.70059259,3.69658238 Z" id="Fill-12" fill="#3F3F3F" mask="url(#mask-2)"></path>
                    </g>
                    <path d="M12.2329747,27.6846414 C12.5369747,27.6846414 12.8789747,27.5946414 13.2589747,27.4146414 L13.2589747,27.4146414 L13.2589747,26.3646414 C12.9789747,26.6846414 12.6449747,26.8446414 12.2569747,26.8446414 C11.8609747,26.8446414 11.5369747,26.6866414 11.2849747,26.3706414 C11.0489747,26.0786414 10.9309747,25.7286414 10.9309747,25.3206414 C10.9309747,24.8966414 11.0449747,24.5386414 11.2729747,24.2466414 C11.5209747,23.9226414 11.8509747,23.7606414 12.2629747,23.7606414 C12.6629747,23.7606414 12.9949747,23.9206414 13.2589747,24.2406414 L13.2589747,24.2406414 L13.2589747,23.1846414 C12.9389747,23.0086414 12.6029747,22.9206414 12.2509747,22.9206414 C11.5869747,22.9206414 11.0449747,23.1606414 10.6249747,23.6406414 C10.2209747,24.1006414 10.0189747,24.6666414 10.0189747,25.3386414 C10.0189747,25.9826414 10.2249747,26.5306414 10.6369747,26.9826414 C11.0649747,27.4506414 11.5969747,27.6846414 12.2329747,27.6846414 Z M15.8629747,27.6846414 C16.5269747,27.6846414 17.0689747,27.4506414 17.4889747,26.9826414 C17.8969747,26.5306414 18.1009747,25.9686414 18.1009747,25.2966414 C18.1009747,24.6366414 17.8949747,24.0786414 17.4829747,23.6226414 C17.0589747,23.1546414 16.5189747,22.9206414 15.8629747,22.9206414 C15.2069747,22.9206414 14.6699747,23.1516414 14.2519747,23.6136414 C13.8339747,24.0756414 13.6249747,24.6366414 13.6249747,25.2966414 C13.6249747,25.9686414 13.8289747,26.5306414 14.2369747,26.9826414 C14.6569747,27.4506414 15.1989747,27.6846414 15.8629747,27.6846414 Z M15.8629747,26.8146414 C15.4989747,26.8146414 15.1829747,26.6446414 14.9149747,26.3046414 C14.6629747,25.9846414 14.5369747,25.6366414 14.5369747,25.2606414 C14.5369747,24.8686414 14.6589747,24.5306414 14.9029747,24.2466414 C15.1589747,23.9426414 15.4789747,23.7906414 15.8629747,23.7906414 C16.2469747,23.7906414 16.5669747,23.9426414 16.8229747,24.2466414 C17.0669747,24.5306414 17.1889747,24.8686414 17.1889747,25.2606414 C17.1889747,25.6366414 17.0629747,25.9846414 16.8109747,26.3046414 C16.5429747,26.6446414 16.2269747,26.8146414 15.8629747,26.8146414 Z M19.7869747,27.5646414 C20.4309747,27.5646414 20.9569747,27.3506414 21.3649747,26.9226414 C21.7729747,26.4946414 21.9769747,25.9566414 21.9769747,25.3086414 C21.9769747,24.6446414 21.7779747,24.1006414 21.3799747,23.6766414 C20.9819747,23.2526414 20.4529747,23.0406414 19.7929747,23.0406414 L19.7929747,23.0406414 L18.5329747,23.0406414 L18.5329747,27.5646414 L19.7869747,27.5646414 Z M19.5589747,26.7966414 L19.4149747,26.7966414 L19.4149747,23.8086414 L19.5589747,23.8086414 C20.5629747,23.8086414 21.0649747,24.3066414 21.0649747,25.3026414 C21.0649747,26.2986414 20.5629747,26.7966414 19.5589747,26.7966414 L19.5589747,26.7966414 Z" id="COD" fill="#3F3F3F" fill-rule="nonzero"></path>
                </g>
            </g>
        </g>
    </g>
</svg>