<?xml version="1.0" encoding="UTF-8"?>
<svg width="33px" height="33px" viewBox="0 0 33 33" version="1.1" xmlns="http://www.w3.org/2000/svg" xmlns:xlink="http://www.w3.org/1999/xlink">
    <title>jcb (1)</title>
    <g id="Symbols" stroke="none" stroke-width="1" fill="none" fill-rule="evenodd">
        <g id="Footer" transform="translate(-1198.000000, -235.000000)" fill-rule="nonzero">
            <g id="Group-21" transform="translate(1110.750000, 235.500000)">
                <g id="jcb-(1)" transform="translate(88.000000, 0.000000)">
                    <circle id="Oval" fill="#F3F2F2" cx="15.9979747" cy="15.9979747" r="15.9979747"></circle>
                    <path d="M5.3292827,23.9725232 L9.27628692,23.9725232 C10.6641013,23.9725232 12.268692,22.6715949 12.268692,20.9801181 L12.268692,7.61863291 L8.45225316,7.61863291 C6.67416034,7.61863291 5.3292827,8.74599156 5.3292827,10.6979241 L5.3292827,23.9725232 Z" id="Path" fill="#0F549D"></path>
                    <path d="M13.1364051,23.9725232 L17.0834093,23.9725232 C18.4712236,23.9725232 20.0762869,22.6715949 20.0762869,20.9801181 L20.0762869,7.61863291 L16.2593755,7.61863291 C14.4807426,7.61863291 13.1364051,8.74599156 13.1364051,10.6979241 L13.1364051,23.9725232 L13.1364051,23.9725232 Z" id="Path" fill="#B41F36"></path>
                    <path d="M21.0511392,23.9725232 L24.9981435,23.9725232 C26.3859578,23.9725232 27.9910211,22.6715949 27.9910211,20.9801181 L27.9910211,7.61863291 L24.1743797,7.61863291 C22.3962869,7.61863291 21.0514093,8.74599156 21.0514093,10.6979241 L21.0514093,23.9725232 L21.0511392,23.9725232 L21.0511392,23.9725232 L21.0511392,23.9725232 Z" id="Path" fill="#329947"></path>
                    <g id="Group" transform="translate(4.185654, 13.232068)" fill="#F3F2F2">
                        <path d="M1.1276962,3.03716456 L0.0437468354,3.03716456 C0.347611814,4.25167932 1.77843038,5.20627848 3.38349367,5.20627848 C4.85819409,5.20627848 6.85333333,4.38177215 6.85333333,2.82038819 L6.85333333,0.00135021097 L4.38102954,0.00135021097 L4.38102954,2.8204557 C4.38102954,3.64496203 3.73029536,4.29542616 2.81937553,4.29542616 C1.99567932,4.29515612 1.25805907,3.77478481 1.1276962,3.03716456 Z" id="Path"></path>
                        <path d="M22.768135,3.60121519 C22.768135,4.25140928 22.204827,4.77205063 21.4672068,4.77205063 L16.0025654,4.77205063 L16.0025654,0.00101265823 L21.4672068,0.00101265823 C22.1174008,0.00101265823 22.6819916,0.565063291 22.6819916,1.21579747 C22.6819916,1.86599156 22.1176709,2.43031224 21.4672068,2.43031224 C22.204827,2.43017722 22.768135,2.95075105 22.768135,3.60121519 Z M18.0840506,2.16999156 L19.7757975,2.16999156 C20.2095527,2.16999156 20.5998312,1.77971308 20.5998312,1.34548523 C20.5998312,0.912270042 20.2095527,0.521451477 19.7757975,0.521451477 L18.0840506,0.521451477 L18.0840506,2.16999156 Z M19.8192068,4.25147679 C20.2524219,4.25147679 20.6432405,3.86119831 20.6432405,3.42744304 C20.6432405,2.99368776 20.2524895,2.60340928 19.8192068,2.60340928 L18.0840506,2.60340928 L18.0840506,4.25120675 L19.8192068,4.25120675 L19.8192068,4.25147679 Z" id="Shape"></path>
                        <path d="M14.6950211,3.94808439 L14.6950211,4.77211814 L10.531038,4.77211814 C9.2301097,4.77211814 8.14568776,3.68789873 8.14568776,2.38676793 C8.14568776,1.0861097 9.2301097,0.00141772152 10.531038,0.00141772152 L14.6950211,0.00141772152 L14.6950211,0.869130802 C13.6974852,0.652151899 12.742616,0.522059072 12.2657215,0.522059072 C11.2252489,0.522059072 10.4012152,1.34609283 10.4012152,2.38703797 C10.4012152,3.42798312 11.2252489,4.25201688 12.2657215,4.25201688 C12.742616,4.25147679 13.6974852,4.16506329 14.6950211,3.94808439 Z" id="Path"></path>
                    </g>
                </g>
            </g>
        </g>
    </g>
</svg>