<?xml version="1.0" encoding="UTF-8"?>
<svg width="33px" height="33px" viewBox="0 0 33 33" version="1.1" xmlns="http://www.w3.org/2000/svg" xmlns:xlink="http://www.w3.org/1999/xlink">
    <title>mastercard (1)</title>
    <g id="Symbols" stroke="none" stroke-width="1" fill="none" fill-rule="evenodd">
        <g id="Footer" transform="translate(-1154.000000, -235.000000)" fill-rule="nonzero">
            <g id="Group-21" transform="translate(1110.750000, 235.500000)">
                <g id="mastercard-(1)" transform="translate(44.000000, 0.000000)">
                    <circle id="Oval" fill="#3C80AD" cx="15.9979747" cy="15.9979747" r="15.9979747"></circle>
                    <path d="M10.7679325,8.23324895 C6.73100422,8.25876793 3.46248101,11.5502447 3.46248101,15.6015527 C3.46248101,19.6687932 6.75625316,22.969384 10.8151224,22.969384 C12.7190549,22.969384 14.4554937,22.2420928 15.7619578,21.0495865 L15.7616878,21.0493165 L15.7627004,21.0493165 C16.0307173,20.8050633 16.2803038,20.540827 16.5094346,20.2601857 L15.0034093,20.2601857 C14.8020928,20.0169451 14.6192068,19.7627679 14.4550211,19.500827 L17.0526245,19.500827 C17.2112743,19.24773 17.3537215,18.9847764 17.4813165,18.7124388 L14.0266667,18.7124388 C13.9087257,18.4593418 13.8063797,18.201384 13.7192236,17.9384304 L17.7887595,17.9384304 C18.0345654,17.2038481 18.1671561,16.4177553 18.1671561,15.6015527 C18.1671561,15.059443 18.1082869,14.5319831 17.9979072,14.0232236 L13.5032574,14.0232236 C13.5593586,13.7612827 13.6292996,13.5028523 13.7126751,13.2494852 L17.7842363,13.2494852 C17.6932996,12.979173 17.587443,12.7162194 17.4672068,12.460557 L14.0261941,12.460557 C14.150211,12.1945654 14.290903,11.9366751 14.4477975,11.6865485 L17.0438481,11.6865485 C16.8708186,11.4104304 16.6798312,11.1467342 16.4734515,10.8981603 L15.0260253,10.8981603 C15.2500928,10.633654 15.4961013,10.3848776 15.7631055,10.1542616 C14.4571139,8.96121519 12.7204726,8.23345148 10.8155274,8.23345148 C10.7989873,8.23324895 10.7833249,8.23324895 10.7679325,8.23324895 Z" id="Path" fill="#931B1D"></path>
                    <path d="M28.0297046,15.6038481 C28.0303797,19.6726414 24.7404557,22.9719494 20.6787511,22.9731649 C16.6188017,22.9744473 13.3263122,19.6763544 13.3250967,15.6068861 L13.3250967,15.6038481 C13.3238143,11.5338397 16.6148186,8.2342616 20.6755105,8.23324844 C24.7359325,8.23176371 28.028692,11.5300591 28.0297046,15.5997975 C28.0297046,15.5997975 28.0297046,15.6016203 28.0297046,15.6038481 Z" id="Path" fill="#F16622"></path>
                    <path d="M28.0297046,15.6851983 C28.0303797,19.7541941 24.7404557,23.0540422 20.6787511,23.0547853 C16.6188017,23.05627 13.3263122,19.7577722 13.3250967,15.6889789 L13.3250967,15.6851983 C13.3238143,11.6159325 16.6148186,8.31608439 20.6755105,8.31507123 C24.7359325,8.3135865 28.028692,11.6118819 28.0297046,15.6813502 C28.0297046,15.6814177 28.0297046,15.6837131 28.0297046,15.6851983 Z" id="Path" fill="#F7981D"></path>
                    <path d="M10.7679325,8.316827 C6.73100422,8.34288608 3.46248101,11.6336203 3.46248101,15.6851983 C3.46248101,19.7527089 6.75625316,23.0535021 10.8151224,23.0535021 C12.7190549,23.0535021 14.4554937,22.3257384 15.7619578,21.1334346 L15.7616878,21.132692 L15.7627004,21.132692 C16.0307173,20.8886414 16.2803038,20.6252152 16.5094346,20.3435612 L15.0034093,20.3435612 C14.8020928,20.1007932 14.6192068,19.8471561 14.4550211,19.5852152 L17.0526245,19.5852152 C17.2112743,19.3318481 17.3537215,19.0681519 17.4813165,18.7960844 L14.0266667,18.7960844 C13.9087257,18.5427173 13.8063797,18.284827 13.7192236,18.022346 L17.7887595,18.022346 C18.0345654,17.2872236 18.1671561,16.5014008 18.1671561,15.6851983 C18.1671561,15.1433586 18.1082869,14.6156287 17.9979072,14.1071392 L13.5032574,14.1071392 C13.5593586,13.8454684 13.6292996,13.5864979 13.7126751,13.3334008 L17.7842363,13.3334008 C17.6932996,13.0628861 17.587443,12.799865 17.4672068,12.544 L14.0261941,12.544 C14.150211,12.2790211 14.290903,12.0201181 14.4477975,11.7702616 L17.0438481,11.7702616 C16.8708186,11.4944135 16.6798312,11.2309198 16.4734515,10.9813333 L15.0260253,10.9813333 C15.2500928,10.7173671 15.4961013,10.4685232 15.7631055,10.2374346 C14.4571139,9.04459072 12.7204726,8.316827 10.8155274,8.316827 C10.7989873,8.316827 10.7833249,8.316827 10.7679325,8.316827 Z" id="Path" fill="#CB2026"></path>
                    <g id="Group" transform="translate(4.118143, 13.772152)" fill="#FFFFFF">
                        <path d="M9.34055696,3.78889451 L9.43885232,3.12222785 C9.38531646,3.12222785 9.30646414,3.1449789 9.23699578,3.1449789 C8.96465823,3.1449789 8.93434599,2.99996624 8.95203376,2.89262447 L9.17205063,1.53181435 L9.58609283,1.53181435 L9.68614346,0.793924051 L9.29586498,0.793924051 L9.37545992,0.335662447 L8.59240506,0.335662447 C8.57545992,0.352810127 8.13016034,2.91557806 8.13016034,3.22700422 C8.13016034,3.68904641 8.38859072,3.89488608 8.75382278,3.89188122 C9.03918987,3.88921519 9.26224473,3.81016034 9.34055696,3.78889451 Z" id="Path"></path>
                        <path d="M9.58886076,2.51753586 C9.58886076,3.6262616 10.3186498,3.88995781 10.940827,3.88995781 C11.5152743,3.88995781 11.7676287,3.76087764 11.7676287,3.76087764 L11.9058228,3.00408439 C11.9058228,3.00408439 11.469097,3.1981097 11.0744979,3.1981097 C10.2340591,3.1981097 10.3813671,2.56965401 10.3813671,2.56965401 L11.9725232,2.56965401 C11.9725232,2.56965401 12.0748017,2.06089451 12.0748017,1.85377215 C12.0748017,1.33718143 11.817654,0.707172996 10.9585148,0.707172996 C10.1711392,0.707375527 9.58886076,1.55686076 9.58886076,2.51753586 Z M10.9618228,1.40935021 C11.4034093,1.40935021 11.321789,1.90697046 11.321789,1.94713924 L10.4527926,1.94713924 C10.4525232,1.89589873 10.5346835,1.40935021 10.9618228,1.40935021 Z" id="Shape"></path>
                        <path d="M15.9185148,3.78889451 L16.0587342,2.93279325 C16.0587342,2.93279325 15.6745316,3.12681857 15.411038,3.12681857 C14.8558312,3.12681857 14.6332489,2.70089451 14.6332489,2.24519831 C14.6332489,1.31861603 15.1109536,0.808843882 15.6432068,0.808843882 C16.0418565,0.808843882 16.3621266,1.03365401 16.3621266,1.03365401 L16.4897215,0.20307173 C16.4897215,0.20307173 16.0150549,0.0100590717 15.6083713,0.0100590717 C14.7045401,0.0100590717 13.8249451,0.794936709 13.8249451,2.27166245 C13.8249451,3.2492827 14.3000844,3.8961689 15.2342278,3.8961689 C15.4981266,3.8963038 15.9185148,3.78889451 15.9185148,3.78889451 Z" id="Path"></path>
                        <path d="M5.03513924,0.719257384 C4.49836287,0.719257384 4.08681857,0.891814346 4.08681857,0.891814346 L3.97340084,1.56779747 C3.97340084,1.56779747 4.31338397,1.42987342 4.82646414,1.42987342 C5.11797468,1.42987342 5.33090295,1.46248101 5.33090295,1.70018565 C5.33090295,1.84418565 5.30491139,1.89745148 5.30491139,1.89745148 C5.30491139,1.89745148 5.07530802,1.87800844 4.96870886,1.87800844 C4.29198312,1.87800844 3.58062447,2.16749367 3.58062447,3.04101266 C3.58062447,3.72860759 4.04691983,3.8867173 4.33620253,3.8867173 C4.88864135,3.8867173 5.12607595,3.52776371 5.13924051,3.52621097 L5.11345148,3.82629536 L5.80259916,3.82629536 L6.11024473,1.66521519 C6.11024473,0.748759494 5.31220253,0.719257384 5.03513924,0.719257384 Z M5.20310549,2.47790717 C5.21802532,2.61002532 5.12027004,3.22889451 4.64891139,3.22889451 C4.40587342,3.22889451 4.34248101,3.04249789 4.34248101,2.93232068 C4.34248101,2.71783966 4.45893671,2.45994937 5.03284388,2.45994937 C5.16597468,2.45994937 5.18035443,2.47459916 5.20310549,2.47790717 Z" id="Shape"></path>
                        <path d="M6.84300422,3.87024473 C7.01907173,3.87024473 8.02700422,3.91547679 8.02700422,2.87318143 C8.02700422,1.89859916 7.09414346,2.0908692 7.09414346,1.69930802 C7.09414346,1.50508017 7.24624473,1.44290295 7.52405063,1.44290295 C7.63443038,1.44290295 8.05907173,1.47854852 8.05907173,1.47854852 L8.1581097,0.785417722 C8.1581097,0.785417722 7.88327426,0.724253165 7.4361519,0.724253165 C6.85643882,0.724253165 6.26909705,0.955139241 6.26909705,1.74805063 C6.26909705,2.64708861 7.24921519,2.5561519 7.24921519,2.93454852 C7.24921519,3.187173 6.97512236,3.20789873 6.76394937,3.20789873 C6.39918987,3.20789873 6.07054852,3.08232911 6.06899578,3.08813502 L5.96469198,3.7734346 C5.98291983,3.7798481 6.18599156,3.87024473 6.84300422,3.87024473 Z" id="Path"></path>
                        <path d="M22.4027004,0.0975527426 L22.2341941,1.14740928 C22.2341941,1.14740928 21.9393755,0.739983122 21.4784135,0.739983122 C20.7607764,0.739983122 20.1631055,1.6064135 20.1631055,2.60246414 C20.1631055,3.24536709 20.4816203,3.87463291 21.1339072,3.87463291 C21.6029705,3.87463291 21.8624135,3.54700422 21.8624135,3.54700422 L21.8283207,3.82663291 L22.5897046,3.82663291 L23.1881181,0.0958649789 L22.4027004,0.0975527426 Z M22.0394262,2.14548523 C22.0394262,2.55952743 21.8343291,3.11243882 21.4101603,3.11243882 C21.1282363,3.11243882 20.9966582,2.87547679 20.9966582,2.50362869 C20.9966582,1.89583122 21.2689958,1.49367089 21.6124895,1.49367089 C21.8946835,1.4937384 22.0394262,1.68823629 22.0394262,2.14548523 Z" id="Shape"></path>
                        <polygon id="Path" points="0.796084388 3.82987342 1.27324895 1.01326582 1.3427173 3.82987342 1.8822616 3.82987342 2.88837131 1.01326582 2.44253165 3.82987342 3.24381435 3.82987342 3.86146835 0.0950548523 2.62197468 0.0950548523 1.8502616 2.38622785 1.81009283 0.0950548523 0.668016878 0.0950548523 0.0417890295 3.82987342"></polygon>
                        <path d="M12.857654,3.83513924 C13.0855021,2.5369789 13.1276962,1.48232911 13.6718312,1.67459916 C13.7670886,1.17238819 13.8587679,0.978160338 13.9623291,0.765232068 C13.9623291,0.765232068 13.9138565,0.754902954 13.8112405,0.754902954 C13.4614008,0.754902954 13.2014177,1.23483544 13.2014177,1.23483544 L13.270616,0.794261603 L12.5415696,0.794261603 L12.0538059,3.83513924 L12.857654,3.83513924 Z" id="Path"></path>
                        <path d="M17.7246245,0.719257384 C17.1878481,0.719257384 16.7765738,0.891814346 16.7765738,0.891814346 L16.6634262,1.56779747 C16.6634262,1.56779747 17.0026667,1.42987342 17.5162194,1.42987342 C17.8074599,1.42987342 18.0209283,1.46248101 18.0209283,1.70018565 C18.0209283,1.84418565 17.9946667,1.89745148 17.9946667,1.89745148 C17.9946667,1.89745148 17.7650633,1.87800844 17.657654,1.87800844 C16.9806582,1.87800844 16.2701097,2.16749367 16.2701097,3.04101266 C16.2701097,3.72860759 16.7366751,3.8867173 17.0256878,3.8867173 C17.5781266,3.8867173 17.8158312,3.52776371 17.8284557,3.52621097 L17.8029367,3.82629536 L18.492557,3.82629536 L18.8000001,1.66521519 C18.80027,0.748759494 18.0024979,0.719257384 17.7246245,0.719257384 Z M17.8928608,2.47790717 C17.9077806,2.61002532 17.8104979,3.22889451 17.3383966,3.22889451 C17.0956287,3.22889451 17.0327089,3.04249789 17.0327089,2.93232068 C17.0327089,2.71783966 17.1491646,2.45994937 17.7220591,2.45994937 C17.856,2.45994937 17.8699072,2.47459916 17.8928608,2.47790717 Z" id="Shape"></path>
                        <path d="M19.4294684,3.83513924 C19.6575865,2.5369789 19.6997806,1.48232911 20.2438481,1.67459916 C20.3391055,1.17238819 20.4307848,0.978160338 20.5348861,0.765232068 C20.5348861,0.765232068 20.4856034,0.754902954 20.3835949,0.754902954 C20.0327426,0.754902954 19.7735696,1.23483544 19.7735696,1.23483544 L19.843308,0.794261603 L19.113789,0.794261603 L18.6257553,3.83493671 L19.4295359,3.83493671 L19.4294684,3.83513924 L19.4294684,3.83513924 Z" id="Path"></path>
                    </g>
                </g>
            </g>
        </g>
    </g>
</svg>