<?xml version="1.0" encoding="UTF-8"?>
<svg width="33px" height="34px" viewBox="0 0 33 34" version="1.1" xmlns="http://www.w3.org/2000/svg" xmlns:xlink="http://www.w3.org/1999/xlink">
    <title>visa</title>
    <g id="Symbols" stroke="none" stroke-width="1" fill="none" fill-rule="evenodd">
        <g id="Footer" transform="translate(-1110.000000, -235.000000)" fill-rule="nonzero">
            <g id="visa" transform="translate(1110.750000, 235.500000)">
                <circle id="Oval" fill="#F3F2F2" cx="15.9986498" cy="15.9993249" r="15.9979747"></circle>
                <g id="Group" transform="translate(5.265823, 11.679325)" fill="#293688">
                    <polygon id="Path" points="6.5811308 7.388827 7.80529958 0.160202532 9.78720675 0.160202532 8.56310549 7.388827"></polygon>
                    <path d="M15.6187004,0.34707173 C15.2259241,0.20057384 14.6105654,0.0436793249 13.8420928,0.0436793249 C11.8833418,0.0436793249 10.5036287,1.02433755 10.4917468,2.42929958 C10.4808776,3.46774684 11.4766582,4.04698734 12.2289283,4.39304641 C13.0003713,4.74666667 13.2598143,4.97356962 13.2560338,5.2895865 C13.2512405,5.7741097 12.6396624,5.99561181 12.0698059,5.99561181 C11.2766245,5.99534177 10.8550211,5.88597468 10.2040169,5.61620253 L9.94862447,5.50102954 L9.67027848,7.11925738 C10.1333333,7.32111392 10.9896371,7.49616878 11.8785485,7.50501266 C13.961789,7.50454008 15.3147679,6.53603376 15.3299578,5.03527426 C15.337519,4.21306329 14.8093165,3.58730802 13.6657553,3.07125738 C12.972827,2.7372827 12.5484557,2.51422785 12.5530464,2.17525738 C12.5530464,1.87490295 12.9124726,1.55362025 13.6882363,1.55362025 C14.3364051,1.54349367 14.8060084,1.68398312 15.1720506,1.83048101 L15.3494008,1.91385654 L15.6187004,0.34707173 L15.6187004,0.34707173 Z" id="Path"></path>
                    <path d="M18.9978059,0.160202532 C18.5229367,0.160202532 18.1798481,0.30521519 17.971173,0.775831224 L15.0338565,7.38909705 L17.1322869,7.38909705 L17.5402532,6.28138397 L20.0473924,6.28138397 L20.2803038,7.38909705 L22.1458228,7.38909705 L20.5137553,0.160405063 L18.9978734,0.160405063 L18.9978059,0.160202532 L18.9978059,0.160202532 Z M18.0970127,4.83497046 C18.2607257,4.41870042 18.8864135,2.81458228 18.8864135,2.81458228 C18.8750717,2.83355274 19.0493165,2.39628692 19.1493671,2.12496203 L19.2835105,2.74788186 C19.2835105,2.74788186 19.6626498,4.47345148 19.7422447,4.835173 L18.0970127,4.835173 L18.0970127,4.83497046 Z" id="Shape"></path>
                    <path d="M2.96681857,5.11534177 L2.79223629,4.12435443 C2.43051477,2.96918143 1.30788186,1.71929114 0.0498902954,1.09306329 L1.8009789,7.388827 L3.89988186,7.388827 L7.04762869,0.160202532 L4.94919831,0.160202532 L2.96681857,5.11534177 Z" id="Path"></path>
                </g>
                <g id="Group" transform="translate(1.755274, 11.814346)" fill="#F7981D">
                    <path d="M1.40577215,0.0251814346 L1.40577215,0.141907173 C3.89272574,0.740050633 5.61930802,2.25221941 6.30285232,3.98940084 L5.58420253,0.642092827 C5.46423629,0.18464135 5.10069198,0.0411139241 4.67051477,0.0252489451 L1.40577215,0.0251814346 L1.40577215,0.0251814346 Z" id="Path"></path>
                    <path d="M14.2422954,20.1828186 C20.4170802,20.1828186 25.7710717,16.6826667 28.4378734,11.5600338 L0.0469873418,11.5600338 C2.71399156,16.6826667 8.06778059,20.1828186 14.2422954,20.1828186 Z" id="Path"></path>
                </g>
                <path d="M15.9975696,0 C9.92081013,0 4.63547679,3.38794937 1.92729114,8.3782616 L30.0683882,8.3782616 C27.359865,3.38821941 22.0743291,0 15.9975696,0 Z" id="Path" fill="#293688"></path>
            </g>
        </g>
    </g>
</svg>